<?xml version="1.0" encoding="UTF-8" standalone="no"?>
<svg width="20px" height="20px" viewBox="0 0 20 20" version="1.1" xmlns="http://www.w3.org/2000/svg" xmlns:xlink="http://www.w3.org/1999/xlink">
    <!-- Generator: Sketch 41.2 (35397) - http://www.bohemiancoding.com/sketch -->
    <title>bbs</title>
    <desc>Created with Sketch.</desc>
    <defs></defs>
    <g id="P&amp;G功能迭代1" stroke="none" stroke-width="1" fill="none" fill-rule="evenodd">
        <g id="P&amp;G_Platform-Analysis" transform="translate(-364.000000, -430.000000)" fill="#5DA4E2">
            <g id="bbs" transform="translate(364.000000, 430.000000)">
                <path d="M1.52663809,0.0086114922 C0.622899533,0.0836159688 -0.0508225333,0.875937572 0.0188532667,1.78214472 L0.0188532667,12.3980007 C-0.0465473778,13.3028176 0.624900667,14.0927006 1.52663809,14.1715339 L3.03442291,14.1715339 L3.03442291,18.5927637 L6.81028633,14.1715339 L15.8822824,14.1715339 C16.7840425,14.0927234 17.4554906,13.3028404 17.3900672,12.3980007 L17.3900672,1.78214472 C17.459743,0.875937572 16.7859982,0.0836387528 15.8822824,0.0086114922 L1.52663809,0.0086114922 Z M18.922798,16.6068431 L16.3433387,16.6068431 L16.8168793,19.9913657 L13.2279626,16.7192017 L6.84769389,16.7192017 L6.84769389,15.1455437 L13.6018786,15.1580558 L15.3215788,17.0189461 L14.9601471,15.0830513 L18.5740098,15.0580498 L18.5989557,5.81599951 L17.7889292,5.80348737 L17.7764449,4.32969853 L18.9602283,4.32969853 C19.5162246,4.3191692 19.9754617,4.76235878 19.9859677,5.31959343 C19.9874913,5.40679098 19.9779177,5.49385176 19.9572241,5.57861069 L19.9572241,15.0205362 C20.1006689,15.7431864 19.640977,16.4481281 18.9229799,16.6066836 L18.9229799,16.6066836 L18.922798,16.6068431 Z" id="Shape"></path>
            </g>
        </g>
    </g>
</svg>